700 0 1 0           
4 LibG 20 ASM 226.0.3.65535 NT 24 Wed May 18 17:30:18 2022 
1000 9.999999999999999547e-07 1.000000000000000036e-10 
body $-1 -1 $-1 $1 $-1 $-1 #
lump $-1 -1 $-1 $-1 $2 $0 #
shell $-1 -1 $-1 $-1 $-1 $3 $-1 $1 #
face $-1 -1 $-1 $4 $5 $2 $-1 $6 forward single #
face $-1 -1 $-1 $7 $8 $2 $-1 $9 forward single #
loop $-1 -1 $-1 $-1 $10 $3 #
spline-surface $-1 -1 $-1 forward { sumsur 
	intcurve forward { exactcur full nubs 3 open 4 
	0 3 0.00112982064195710219 1 0.2868441063562520155 1 0.5002352459193878387 3 
	65.76261755725425928 93.33608919027140871 -19.43141404427510821 
	65.76264937512323172 93.3360915569505778 -19.43144973975198653 
	65.77072095583989153 93.33674649759258557 -19.44050705392645639 
	65.78179684313126074 93.36192388200504411 -19.45385180869984154 
	65.76685830532049692 93.37583649975194078 -19.43765970018785083 
	65.7610068810058408 93.37632392337877718 -19.43112998918789458 
	0 
	
	null_surface 
	null_surface 
	nullbs 
	nullbs 
	I I 
	0 
	0 
	2 0.00112982064195710219 0.2868441063562520155 
	F 1 F 0 } F 0 F 0.5002352459193878387 
	straight 0 0 0 -22.72054378412466491 -0.7662089099024899097 -20.3032069895388787 I I 
	0 0 0 
	none F 0 F 0.5002352459193878387 F 0 F 0.03543307086491791214 OPEN OPEN NON_SINGULAR NON_SINGULAR 
	0 
	0 
	2 0.00112982064195710219 0.2868441063562520155 
	0 
	0 
	0 
	} F 0 F 0.5000002443740234614 F 0.009840027699446526194 F 0.01968504322606770204 #
face $-1 -1 $-1 $11 $12 $2 $-1 $13 reversed single #
loop $-1 -1 $-1 $-1 $14 $4 #
spline-surface $-1 -1 $-1 forward { sumsur 
	intcurve forward { exactcur full nubs 3 open 4 
	0 3 0.07255839207043879302 1 0.3582726777847338173 1 0.5000000000000885958 3 
	65.76102623507183864 93.37632229144156781 -19.4311515859976609 
	65.75903620332024957 93.37649212042460078 -19.42893102650245396 
	65.749512378632474 93.37421530237568845 -19.41818735461856704 
	65.7453760003646579 93.34500547753521005 -19.41245616192316348 
	65.75862624996219097 93.33579230854664388 -19.42693632085162747 
	65.7626175572542877 93.33608919027142292 -19.43141404427511532 
	0 
	
	null_surface 
	null_surface 
	nullbs 
	nullbs 
	I I 
	0 
	0 
	2 0.07255839207043879302 0.3582726777847338173 
	F 1 F 0 } F 0 F 0.5000000000000885958 
	straight 0 0 0 -22.72054378412431319 -0.7662089099043272178 -20.303206989539202 I I 
	0 0 0 
	none F 0 F 0.5000000000000885958 F 0 F 0.03543307086484431129 OPEN OPEN NON_SINGULAR NON_SINGULAR 
	0 
	0 
	2 0.07255839207043879302 0.3582726777847338173 
	0 
	0 
	0 
	} F 0 F 0.4999801479496306378 F 0.009840147520107081144 F 0.01968503925967507798 #
coedge $-1 -1 $-1 $15 $16 $17 $18 reversed $5 $19 #
face $-1 -1 $-1 $20 $21 $2 $-1 $22 reversed single #
loop $-1 -1 $-1 $-1 $23 $7 #
plane-surface $-1 -1 $-1 65.58673262153966732 93.27620918960126062 -19.68143375144382645 -0.03870675450929959849 0.9992348883502906176 0.005605805824257403813 0 -0.1709931015671774801 30.47952035973034413 forward_v I I I I #
coedge $-1 -1 $-1 $24 $25 $26 $27 reversed $8 $28 #
coedge $-1 -1 $-1 $29 $10 $25 $30 forward $5 $31 #
coedge $-1 -1 $-1 $10 $29 $24 $32 forward $5 $33 #
coedge $-1 -1 $-1 $26 $26 $10 $18 forward $21 $-1 #
edge $-1 -1 $-1 $34 0 $35 0.0004563581298896175861 $17 $36 forward @7 unknown #
pcurve $-1 -1 $-1 -1 $36 0 0 #
face $-1 -1 $-1 $37 $38 $2 $-1 $39 forward single #
loop $-1 -1 $-1 $40 $26 $11 #
cone-surface $-1 -1 $-1 67.59796177922247296 92.20291082784510195 -17.83953584385762525 -0.03870675452997165977 0.9992348883495912881 0.005605805806171163842 1.745883504680705078 0.07917516193196813545 -2.058062701145959572 1 I I 0 1 2.700000000005803535 forward I I I I #
coedge $-1 -1 $-1 $41 $42 $43 $44 forward $12 $-1 #
coedge $-1 -1 $-1 $45 $14 $16 $32 reversed $8 $46 #
coedge $-1 -1 $-1 $14 $45 $15 $30 reversed $8 $47 #
coedge $-1 -1 $-1 $17 $17 $14 $27 forward $21 $-1 #
edge $-1 -1 $-1 $35 5.047526336051239099e-08 $34 0.0009445925877068269555 $26 $48 forward @7 unknown #
pcurve $-1 -1 $-1 -1 $48 0 0 #
coedge $-1 -1 $-1 $16 $15 $49 $50 reversed $5 $51 #
edge $-1 -1 $-1 $34 0.009842519468964541773 $52 0.01968503917512042303 $25 $53 forward @7 unknown #
pcurve $-1 -1 $-1 0 reversed { exppc nubs 1 open 2 
	-0.02952755905403156578 1 -1.116355345733997229e-17 1 
	0.5000001736766487292 0.02952755905403193701 
	0.5000001736768299176 1.110223024625156294e-16 
	1.654193856216638501e-14 
	spline reversed { ref 0 } F 0 F 0.5001176229597756873 F 0 F 0.02952755905403355724 
	} 0 0 #
edge $-1 -1 $-1 $54 0.009842519794704310265 $35 0.01968503949640771147 $24 $55 forward @7 unknown #
pcurve $-1 -1 $-1 0 reversed { exppc nubs 1 open 2 
	-0.02952755905507915141 1 -1.479087934552365432e-16 1 
	0 0 
	6.25985605040048354e-14 0.02952755905402950493 
	1.749078868210949907e-14 
	spline reversed { ref 0 } F 0 F 0.5001176229597756873 F 0 F 0.02952755905403355724 
	} 0 0 #
vertex $-1 -1 $-1 $27 $56 #
vertex $-1 -1 $-1 $27 $57 #
intcurve-curve $-1 -1 $-1 forward { surfintcur full nubs 3 open 10 
	0 3 8.476795447804768874e-05 2 0.0001796284762500475996 2 0.0002472249675987890053 2 0.0002874947755922670689 2 
	0.0003230200429124557415 2 0.0003704670027197372794 2 0.0004137836398329076092 2 0.0004351062119955356462 2 0.0004563581298896175861 3 
	65.53739882042452791 93.36878086704452073 -19.63098627363793724 
	65.5392814089681508 93.36862019379795186 -19.63308723800415478 
	65.5411857041622028 93.36789972110986469 -19.63518440420940436 
	65.54491641692091264 93.36553026485826479 -19.6392456708697658 
	65.54679577099278731 93.36372430991448823 -19.64126124859766875 
	65.54939933812387665 93.35984862236217907 -19.64399659490945638 
	65.55031609366672285 93.35797829173179707 -19.64493896258505146 
	65.55128579310009229 93.35465659401083371 -19.64588534708209266 
	65.55170155111021302 93.35278510990706025 -19.64627424256244126 
	65.55178282742896556 93.34803389379895577 -19.64618760759038096 
	65.55152253019274156 93.34580510826565103 -19.64581808051805822 
	65.55043176743684796 93.34089946839625895 -19.64443221362366288 
	65.5494239530423215 93.33824903492629232 -19.64322067495231749 
	65.54700905821582069 93.33391482892525914 -19.6403846999311078 
	65.54561461843080394 93.33211356704332218 -19.63877041779207389 
	65.54327210263450354 93.33014952946673759 -19.63609008578804804 
	65.54245614590595892 93.32961878630200658 -19.63516101871218922 
	65.54075883876352293 93.32885022524395424 -19.63323811954872511 
	65.53988384543583834 93.32861424032613229 -19.632251457781841 
	65.53899016048599435 93.32854776408328235 -19.63124875634262168 
	8.521832005453108242e-07 
	
	spline reversed { ref 0 } F 0 F 0.5000002443740234614 F 0 F 0.02952755905403380704 
	cone 67.59796177922247296 92.20291082784510195 -17.83953584385762525 -0.03870675452997165977 0.9992348883495912881 0.005605805806171163842 1.745883504680705078 0.07917516193196813545 -2.058062701145959572 1 I I -0 -1 2.700000000005803535 forward I I I I 
	nubs 3 open 10 
	0 3 8.476795447804768874e-05 3 0.0001796284762500475996 3 0.0002472249675987890053 3 0.0002874947755922670689 3 
	0.0003230200429124557415 3 0.0003704670027197372794 3 0.0004137836398329076092 3 0.0004351062119955356462 3 0.0004563581298896175861 3 
	0.5000002443740234614 0.009842519468944790212 
	0.4771181551785807495 0.009842525914638340298 
	0.4546430364998853002 0.009842380181856846821 
	0.4325879657760084429 0.009842130477287458837 
	0.407906993709764687 0.009841851042613272704 
	0.3827391482915628584 0.009841427465631023136 
	0.3570960441171319166 0.009841019826825971734 
	0.3388230698903188509 0.009840729348211217989 
	0.3200280232905746147 0.009840446220253868184 
	0.3008318861300957603 0.009840262513214511481 
	0.289396015092340364 0.009840153071924670133 
	0.2728397799131053736 0.009840027699446526194 
	0.2516565105927372481 0.00984004760915272933 
	0.2329690287591137388 0.009840065173121130548 
	0.2147355572930315648 0.009840193506324288603 
	0.197038342696624097 0.009840379661863607116 
	0.1734022354130794752 0.009840628288124805834 
	0.1501187199608464973 0.009840984311345460367 
	0.1271513175900656212 0.009841327124381894081 
	0.1061832589838195284 0.009841640095075003883 
	0.08498190160242881375 0.009841949523792104318 
	0.06357565969058880107 0.009842172239201951375 
	0.05303845809058039401 0.009842281870644157063 
	0.0424394880527146981 0.009842370780082577986 
	0.03178783001690462656 0.009842430942294224522 
	0.02117146721196929912 0.009842490905152949734 
	0.01057856373830665629 0.009842521840507644296 
	0 0.009842519567006257145 
	
	nullbs 
	I I 
	0 
	2 0.0002614012267643153059 0.000455601570425828023 
	0 
	} I I #
face $-1 -1 $-1 $58 $59 $2 $-1 $60 forward single #
loop $-1 -1 $-1 $-1 $61 $20 #
plane-surface $-1 -1 $-1 65.26835619686008272 93.26440099624717561 -19.77493669460343284 -0.6466235202506801505 -0.02932413404913197796 0.7622454448672597582 23.2432367947221401 0 19.71756433499012928 forward_v I I I I #
loop $-1 -1 $-1 $-1 $43 $11 #
coedge $-1 -1 $-1 $62 $23 $61 $63 forward $12 $-1 #
coedge $-1 -1 $-1 $23 $62 $64 $65 forward $12 $-1 #
coedge $-1 -1 $-1 $66 $67 $23 $44 reversed $40 $-1 #
edge $-1 -1 $-1 $68 0 $69 0.05000000000033905795 $23 $70 forward @7 unknown #
coedge $-1 -1 $-1 $25 $24 $71 $72 reversed $8 $73 #
pcurve $-1 -1 $-1 0 reversed { exppc nubs 1 open 2 
	1.479087934552365432e-16 1 0.02952755905507915141 1 
	0.5000000000000535127 0.02952755905402935921 
	0.4999404438494485792 0 
	3.972958356146802985e-14 
	spline reversed { ref 2 } F 0 F 0.5000000000000885958 F 0 F 0.02952755905403313397 
	} 0 0 #
pcurve $-1 -1 $-1 0 reversed { exppc nubs 1 open 2 
	1.116355345733997229e-17 1 0.02952755905403156578 1 
	1.736767942397787166e-07 1.259216851565015237e-16 
	1.736766413018042138e-07 0.02952755905403168721 
	1.469617595208025347e-14 
	spline reversed { ref 2 } F 0 F 0.5000000000000885958 F 0 F 0.02952755905403313397 
	} 0 0 #
intcurve-curve $-1 -1 $-1 forward { surfintcur full nubs 3 open 10 
	0 3 6.350490130420194748e-05 2 0.0001424727726065303348 2 0.0002339137294420248303 2 0.0003623975085797363554 2 
	0.0005215967998445361284 2 0.0006898888363047279895 2 0.0008139393300927746889 2 0.0008856135149576112135 2 0.0009445925877068269555 3 
	65.53899016048600856 93.32854776408326813 -19.63124875634264654 
	65.53758342989620189 93.32844312523482699 -19.62967042520120131 
	65.5361527070007952 93.32875590431494572 -19.62807710056313937 
	65.53310534263127352 93.33015545362310661 -19.62470372463718959 
	65.53148213153981771 93.33143333521380214 -19.62292156859448511 
	65.52849118601230316 93.33502178091131896 -19.61967823729304783 
	65.52757641319495008 93.33701647449926497 -19.61871709500524474 
	65.5262794931449406 93.34049383204036587 -19.61737984586084238 
	65.52578810698203426 93.34271903817082716 -19.61690721821262429 
	65.52521622190934636 93.34782902846500008 -19.61645397038671135 
	65.52526037923985314 93.35075777331297786 -19.61661662607334833 
	65.52599648206086158 93.35649313298385721 -19.61767197369156079 
	65.52673653494076689 93.35937090506349989 -19.61862196768803912 
	65.52864709264845544 93.36364603031222487 -19.62094744471630747 
	65.52966164337910016 93.36524934760907968 -19.62215540444443818 
	65.53157852969721375 93.36713420866365709 -19.62438853339552125 
	65.53256736943917815 93.36790510163280032 -19.62553211988599955 
	65.53506033166810596 93.3687660109340527 -19.62836582182347556 
	65.5362334990791453 93.36888032616843702 -19.62968577789231617 
	65.53739884053001674 93.36878086532850318 -19.63098629607561563 
	2.194139680795637353e-06 
	
	spline reversed { ref 2 } F 0 F 0.5000000000000885958 F 0 F 0.02952755905403253375 
	cone 67.59796177922247296 92.20291082784510195 -17.83953584385762525 -0.03870675452997165977 0.9992348883495912881 0.005605805806171163842 1.745883504680705078 0.07917516193196813545 -2.058062701145959572 1 I I -0 -1 2.700000000005803535 forward I I I I 
	nubs 3 open 10 
	0 3 6.350490130420194748e-05 3 0.0001424727726065303348 3 0.0002339137294420248303 3 0.0003623975085797363554 3 
	0.0005215967998445361284 3 0.0006898888363047279895 3 0.0008139393300927746889 3 0.0008856135149576112135 3 0.0009445925877068269555 3 
	0.5000000000000885958 0.009842519567006730724 
	0.4833485064157995725 0.009842515988344019071 
	0.4669624814755491959 0.009842427237902559578 
	0.4508783036979234216 0.009842271346002427757 
	0.4308777485492253367 0.009842077495586886923 
	0.410832520235665688 0.009841773556546288063 
	0.3907365402594192849 0.00984145251892932886 
	0.3674663721863851706 0.009841080772972514434 
	0.3490273100937027473 0.009840802539918435538 
	0.3360754782766970927 0.009840646749609487098 
	0.3178768465454180903 0.009840427848491876267 
	0.2997604759748587755 0.009840281169863060451 
	0.2817474214922833786 0.009840221479782218852 
	0.259428140985546396 0.009840147520107081144 
	0.237163630676116205 0.009840206854134917955 
	0.214956843395105901 0.009840367911853976912 
	0.1914817046236442777 0.009840538168463240989 
	0.1674373010784491189 0.009840827229273667667 
	0.1428128854177762586 0.009841155697355415469 
	0.1246618725344593587 0.009841397815928531329 
	0.1060219361092424178 0.009841662431704615785 
	0.08698828660675167468 0.009841896283976074578 
	0.07599098001460750929 0.009842031399689230714 
	0.06149268718336224626 0.009842204517288226373 
	0.04349414365770870594 0.009842341595500937734 
	0.02868354748586107728 0.009842454394075418611 
	0.01416424276765327304 0.009842515479700969516 
	0 0.009842519469013768021 
	
	nullbs 
	I I 
	0 
	2 0.0001904560998242747489 0.0008418036504417766288 
	0 
	} I I #
coedge $-1 -1 $-1 $71 $71 $29 $50 forward $74 $-1 #
edge $-1 -1 $-1 $54 0 $52 0.001463442881278989799 $49 $75 forward @7 unknown #
pcurve $-1 -1 $-1 -1 $75 0 0 #
vertex $-1 -1 $-1 $72 $76 #
straight-curve $-1 -1 $-1 65.76102622078172999 93.37632229266107231 -19.43115157005217597 -22.72054378412391173 -0.7662089099048493557 -20.30320698953962832 F 1.116355345733997229e-17 F 0.02952755905403156578 #
vertex $-1 -1 $-1 $72 $77 #
straight-curve $-1 -1 $-1 65.0917353589288723 93.31346491143649757 -20.0309181876449145 22.72037337127790124 0.7661962949400005218 20.3033981664978036 F 1.479087934552365432e-16 F 0.02952755905507915141 #
point $-1 -1 $-1 65.53739882624101654 93.3687808665480361 -19.63098628012913238 #
point $-1 -1 $-1 65.53898680611560223 93.32854751576439867 -19.63124499282611168 #
face $-1 -1 $-1 $78 $74 $2 $-1 $79 forward single #
loop $-1 -1 $-1 $-1 $64 $37 #
plane-surface $-1 -1 $-1 65.58673262153966732 93.27620918960117535 -19.68143375144382645 0.6838908711936181328 0.0305809075054153251 -0.7289431283674874251 -22.22858297929127502 0 -20.8547476305219881 forward_v I I I I #
coedge $-1 -1 $-1 $80 $81 $41 $63 reversed $38 $-1 #
coedge $-1 -1 $-1 $42 $41 $82 $83 forward $12 $-1 #
edge $-1 -1 $-1 $69 -7.186071994349489591e-17 $84 0.009842519685039506985 $41 $85 forward @7 unknown #
coedge $-1 -1 $-1 $86 $87 $42 $65 reversed $59 $-1 #
edge $-1 -1 $-1 $88 4.863726099236952362e-16 $68 0.009842519685039689131 $42 $89 forward @7 unknown #
coedge $-1 -1 $-1 $90 $43 $87 $91 reversed $40 $-1 #
coedge $-1 -1 $-1 $43 $90 $80 $92 reversed $40 $-1 #
vertex $-1 -1 $-1 $44 $93 #
vertex $-1 -1 $-1 $44 $94 #
ellipse-curve $-1 -1 $-1 67.55383607904053633 93.3420386005594338 -17.8331452252546363 -0.03870675452912574616 0.9992348883496168233 0.005605805807445046751 -1.967103457500862351 -0.06582941095819606903 -1.848288526189185932 1 F 0 F 0.05000000000033905795 #
coedge $-1 -1 $-1 $49 $49 $45 $72 forward $74 $-1 #
edge $-1 -1 $-1 $52 0 $54 0.0004065131156217827667 $71 $95 forward @7 unknown #
pcurve $-1 -1 $-1 -1 $95 0 0 #
loop $-1 -1 $-1 $96 $71 $58 #
intcurve-curve $-1 -1 $-1 forward { surfintcur full nubs 3 open 10 
	0 3 7.522007950170185413e-05 2 0.0001942023486879690506 2 0.000342555171097286542 2 0.0004705711139354860776 2 
	0.0006003131921087092541 2 0.0007952288679832749188 2 0.001057178010056091574 2 0.001262037819462717876 2 0.001463442881278989799 3 
	65.31536276077460457 93.32100633779589316 -19.83108347104013447 
	65.31702901009180096 93.321130280404887 -19.83295295898505728 
	65.31837999374378967 93.32181546807235861 -19.83448610568328618 
	65.32084219885206267 93.3234418343474772 -19.83729169229349765 
	65.32221314576116811 93.32488790647185795 -19.83887006483382365 
	65.32486760870301623 93.32874525347969552 -19.84196056644750783 
	65.32608142681432639 93.33135816134208085 -19.84340143076877538 
	65.32762636741011875 93.33660761208636814 -19.8453050978470884 
	65.32807587957901774 93.3392620851425221 -19.84589992438222339 
	65.32815046283569416 93.34463999511568488 -19.84618209827071666 
	65.32775250844369452 93.34661990686559818 -19.84581632022994313 
	65.32697355601180789 93.34960385217786438 -19.84506685735822629 
	65.32627475289245922 93.35124954226040472 -19.84435592470179088 
	65.32429973042765425 93.35469123353813359 -19.84229865794794634 
	65.32290048301119612 93.35635909099380569 -19.8408104443169826 
	65.32022650382410234 93.35870388647575169 -19.8379278764474094 
	65.31896580020858778 93.3595397334221957 -19.83655652955546245 
	65.31640707230745591 93.36074193622458495 -19.83374906002839211 
	65.31508605499182352 93.3611272418834659 -19.83228809697155626 
	65.31377142049466045 93.36123944074977032 -19.83082098853067876 
	1.783234827280989152e-06 
	
	spline reversed { ref 0 } F 0 F 0.5000002443740234614 F 0 F 0.02952755905403380704 
	cone 67.60028418437048003 92.14295673410977372 -17.83987219233116761 -0.03870675441934001704 0.9992348883533337389 0.005605805902955847408 -2.051672613578402693 -0.09174272250389656214 2.186829385099348766 1 I I 0 1 2.999999999995675903 forward I I I I 
	nubs 3 open 10 
	0 3 7.522007950170185413e-05 3 0.0001942023486879690506 3 0.000342555171097286542 3 0.0004705711139354860776 3 
	0.0006003131921087092541 3 0.0007952288679832749188 3 0.001057178010056091574 3 0.001262037819462717876 3 0.001463442881278989799 3 
	0 0.01968503926354848999 
	0.01972330710945364649 0.01968504307851596039 
	0.03665222757788656749 0.0196849437433735952 
	0.04912186052556519883 0.01968484936607528199 
	0.0688461845872152256 0.01968470008113451172 
	0.08835850838192109424 0.01968447336279725846 
	0.1076160052145626045 0.0196842245922674193 
	0.1316271795449862891 0.01968391441319211274 
	0.1557799730872061472 0.01968356299921381752 
	0.180107328485726359 0.01968328939994317198 
	0.2010997793708800829 0.01968305330690481303 
	0.2227854533322866926 0.01968287015299045525 
	0.2450781529786079938 0.01968282410338667923 
	0.2676714418774821524 0.01968277743286142578 
	0.2850106517970240061 0.01968288318493470815 
	0.2958608569757595341 0.01968296723619409813 
	0.3121614674297350511 0.01968309350909077521 
	0.3281938074653564796 0.01968328944626008756 
	0.3438825773808509845 0.01968350409767252382 
	0.3649668734545351567 0.01968379256986994841 
	0.3855928511283135962 0.01968411357718449772 
	0.4056954466668887815 0.0196843746844397316 
	0.4214168720474927299 0.01968457888584355595 
	0.4371342470323827389 0.01968475186028591228 
	0.4528478450870747629 0.01968486796787411244 
	0.4682964496558678635 0.01968498211742861215 
	0.4840215272412297653 0.01968504322606770204 
	0.5000002443740234614 0.01968503917510274967 
	
	nullbs 
	I I 
	0 
	2 1.440391272792878853e-06 0.0005689344676015639125 
	0 
	} I I #
point $-1 -1 $-1 65.31377142631120591 93.36123944025327148 -19.83082099502184192 #
point $-1 -1 $-1 65.31536108357875037 93.32100621363606763 -19.83108158929140075 #
face $-1 -1 $-1 $-1 $97 $2 $-1 $98 forward single #
cone-surface $-1 -1 $-1 67.60028418437048003 92.14295673410977372 -17.83987219233116761 -0.03870675441934001704 0.9992348883533337389 0.005605805902955847408 -2.051672613578402693 -0.09174272250389656214 2.186829385099348766 1 I I 0 1 2.999999999995675903 forward I I I I #
coedge $-1 -1 $-1 $99 $61 $67 $92 forward $38 $-1 #
coedge $-1 -1 $-1 $61 $99 $100 $101 reversed $38 $-1 #
coedge $-1 -1 $-1 $100 $102 $62 $83 reversed $96 $-1 #
edge $-1 -1 $-1 $84 -1.701144780615486235e-15 $88 0.05000000000027537278 $62 $103 forward @7 unknown #
vertex $-1 -1 $-1 $63 $104 #
straight-curve $-1 -1 $-1 65.49690418507978507 93.27216475667090378 -19.5807575476673783 -23.22047560312046244 -0.7887980590495227151 -19.72860132870363969 F -7.186071994349489591e-17 F 0.009842519685039506985 #
coedge $-1 -1 $-1 $105 $64 $102 $106 forward $59 $-1 #
coedge $-1 -1 $-1 $64 $105 $66 $91 forward $59 $-1 #
vertex $-1 -1 $-1 $83 $107 #
straight-curve $-1 -1 $-1 65.36816557070442002 93.26889481061412823 -19.88679914324394815 22.20641236486102699 0.7431409050821347062 20.86512380689223534 F 4.863726099236952362e-16 F 0.009842519685039689131 #
coedge $-1 -1 $-1 $67 $66 $108 $109 reversed $40 $-1 #
edge $-1 -1 $-1 $110 0 $68 0.004921259842518300662 $87 $111 forward @7 unknown #
edge $-1 -1 $-1 $69 0 $112 0.004921259842520077019 $80 $113 forward @7 unknown #
point $-1 -1 $-1 65.58673262153966732 93.27620918960124641 -19.68143375144382645 #
point $-1 -1 $-1 65.49690418507978507 93.27216475667090378 -19.58075754766737475 #
intcurve-curve $-1 -1 $-1 forward { surfintcur full nubs 3 open 10 
	0 3 6.869001656405826571e-05 2 0.0001103776210766964372 2 0.0001466422156264444846 2 0.0001947953629717564053 2 
	0.000244465926874978107 2 0.0002841770100328790821 2 0.0003242759882529753384 2 0.0003658007023836325395 2 0.0004065303176912808875 3 
	65.3137714406003056 93.36123943903375277 -19.83082101096821503 
	65.31224591080251685 93.36136964021082463 -19.82911854732326162 
	65.31070786595458344 93.36113340131404925 -19.82738413364444341 
	65.3084194185396143 93.359950935906312 -19.82476633542183109 
	65.30724542629847917 93.35913982493688934 -19.82341408583750564 
	65.30497002758767167 93.35604279806076988 -19.82072913427587935 
	65.30410978386480281 93.35427709971406784 -19.8196893239559202 
	65.30256444881781874 93.3498273767473421 -19.81777100198296893 
	65.30200937291826335 93.34697871208786069 -19.81703267959303716 
	65.30156805883427751 93.34113207931410727 -19.81630847348665014 
	65.30169750632667558 93.33805393953980456 -19.81633736444406679 
	65.3026824851293668 93.3328309849625839 -19.81725379144230104 
	65.30338399416109496 93.3306415828726017 -19.81796503214349059 
	65.30537050075105299 93.32678913478571303 -19.82006518662123185 
	65.30656105921798371 93.32532397013815739 -19.82135433117596435 
	65.30882976334643786 93.32315471354077374 -19.82383023874588801 
	65.31009984598529172 93.32229220689714566 -19.82522751856375365 
	65.31269434269728436 93.32117912970113593 -19.82810049762168347 
	65.31403907655446517 93.32090787661512366 -19.82959833213151768 
	65.31536276077461878 93.32100633779587895 -19.83108347104015579 
	9.79623446235714274e-07 
	
	spline reversed { ref 2 } F 0 F 0.5000000000000885958 F 0 F 0.02952755905403253375 
	cone 67.60028418437048003 92.14295673410977372 -17.83987219233116761 -0.03870675441934001704 0.9992348883533337389 0.005605805902955847408 -2.051672613578402693 -0.09174272250389656214 2.186829385099348766 1 I I 0 1 2.999999999995675903 forward I I I I 
	nubs 3 open 10 
	0 3 6.869001656405826571e-05 3 0.0001103776210766964372 3 0.0001466422156264444846 3 0.0001947953629717564053 3 
	0.000244465926874978107 3 0.0002841770100328790821 3 0.0003242759882529753384 3 0.0003658007023836325395 3 0.0004065303176912808875 3 
	0 0.01968503917516468624 
	0.01854203875224473899 0.01968503447508946486 
	0.0376679959596115943 0.01968493982127643774 
	0.05724584910792741843 0.01968477308430712988 
	0.06912754371331999992 0.01968467189253018945 
	0.08585658288947334293 0.01968449990607776257 
	0.1071136125518063059 0.01968424555417346011 
	0.1256053817731049294 0.0196840242901121093 
	0.1436677897121692582 0.01968379460421564378 
	0.1612235146689354748 0.01968359678050930761 
	0.1845344994212193557 0.01968333410463500577 
	0.2074414547963631117 0.0196831231171529196 
	0.2299786108239295079 0.01968301870102479034 
	0.2532259645355472988 0.01968291099450401871 
	0.2766397041151288372 0.01968291525678770443 
	0.3002007815300585247 0.01968305225287730539 
	0.3190376102469020259 0.01968316177978175416 
	0.3378275646722145864 0.01968335481963652545 
	0.3565814594570811957 0.01968359965519618157 
	0.3755185409647842087 0.01968384688229233431 
	0.3926473552464778694 0.01968411194914647389 
	0.4075038816065503777 0.01968431541674744295 
	0.422888637963444447 0.01968452611872390651 
	0.4383038626426188911 0.01968471249952903623 
	0.4537519403156324849 0.01968484028607363212 
	0.4689042242996898091 0.01968496562581195305 
	0.4843316182495572275 0.01968503623290993737 
	0.5000000000000885958 0.01968503926354887856 
	
	nullbs 
	I I 
	0 
	1 8.422303264441907895e-05 
	1 0.000285374372420461517 
	} I I #
loop $-1 -1 $-1 $-1 $82 $58 #
loop $-1 -1 $-1 $-1 $114 $78 #
plane-surface $-1 -1 $-1 65.58092660836351229 93.42609442285369425 -19.68059288057000344 -0.03870675453415976103 0.9992348883491617428 0.005605805853809382733 0 -0.1709931024687621204 30.47952035972528861 forward_v I I I I #
coedge $-1 -1 $-1 $81 $80 $115 $116 reversed $38 $-1 #
coedge $-1 -1 $-1 $117 $82 $81 $101 forward $96 $-1 #
edge $-1 -1 $-1 $84 5.76936498578347163e-15 $118 0.004921259842519325016 $100 $119 forward @7 unknown #
coedge $-1 -1 $-1 $82 $117 $86 $106 reversed $96 $-1 #
ellipse-curve $-1 -1 $-1 67.55383607905804411 93.34203860014235943 -17.83314522525554935 0.03870675442525767923 -0.9992348883530981496 -0.005605805904091700972 -2.285479882197915202 -0.07763760389569018816 -1.941791469347893928 1 F -1.701144780615486235e-15 F 0.05000000000027537278 #
point $-1 -1 $-1 65.26835619686008272 93.26440099624718982 -19.77493669460343995 #
coedge $-1 -1 $-1 $87 $86 $114 $120 reversed $59 $-1 #
edge $-1 -1 $-1 $88 0 $121 0.004921259842520076151 $86 $122 forward @7 unknown #
point $-1 -1 $-1 65.36816557070443423 93.26889481061415665 -19.8867991432439446 #
coedge $-1 -1 $-1 $114 $115 $90 $109 forward $97 $-1 #
edge $-1 -1 $-1 $112 1.87910729501257205e-15 $110 0.0500000000001634623 $108 $123 forward @7 unknown #
vertex $-1 -1 $-1 $120 $124 #
straight-curve $-1 -1 $-1 65.58092660836351229 93.42609442285368004 -19.68059288056999989 1.179781877395597922 -30.45667939691849568 -0.170864961561209866 F 0 F 0.004921259842518300662 #
vertex $-1 -1 $-1 $116 $125 #
straight-curve $-1 -1 $-1 65.49690418507978507 93.27216475667090378 -19.5807575476673783 -1.179781877395172263 30.45667939691851345 0.1708649615611482209 F 0 F 0.004921259842520077019 #
coedge $-1 -1 $-1 $126 $108 $105 $120 forward $97 $-1 #
coedge $-1 -1 $-1 $108 $126 $99 $116 forward $97 $-1 #
edge $-1 -1 $-1 $118 5.784638247980018559e-13 $112 0.009842519685039363003 $115 $127 forward @7 unknown #
coedge $-1 -1 $-1 $102 $100 $126 $128 reversed $96 $-1 #
vertex $-1 -1 $-1 $128 $129 #
straight-curve $-1 -1 $-1 65.26835619686013956 93.26440099624649349 -19.77493669460346482 -1.179781874666873787 30.45667939701118243 0.1708649638812063387 F 5.76936498578347163e-15 F 0.004921259842519325016 #
edge $-1 -1 $-1 $110 -0 $121 0.009842519685039506985 $114 $130 forward @7 unknown #
vertex $-1 -1 $-1 $120 $131 #
straight-curve $-1 -1 $-1 65.36816557070442002 93.26889481061412823 -19.88679914324394815 -1.179781877395172263 30.45667939691851345 0.1708649615618358653 F 0 F 0.004921259842520076151 #
ellipse-curve $-1 -1 $-1 67.54803006587121672 93.49192383381308957 -17.83230435437437933 0.03870675452934971283 -0.9992348883496097178 -0.005605805807179204715 -2.05693189397096754 -0.06987384388981213168 -1.747612322422031239 1 F 1.87910729501257205e-15 F 0.0500000000001634623 #
point $-1 -1 $-1 65.58092660836351229 93.42609442285368004 -19.68059288056999989 #
point $-1 -1 $-1 65.49109817190363003 93.42204998992346532 -19.57991667679355174 #
coedge $-1 -1 $-1 $115 $114 $117 $128 forward $97 $-1 #
straight-curve $-1 -1 $-1 65.26255018368392768 93.41428622949975136 -19.77409582372960628 23.2204756031208035 0.7887980590495341504 19.72860132870324179 F 5.784638247980018559e-13 F 0.009842519685039363003 #
edge $-1 -1 $-1 $121 8.058054224074055664e-15 $118 0.05000000000031005337 $126 $132 forward @7 unknown #
point $-1 -1 $-1 65.26255018369741379 93.41428622949946714 -19.77409582371822339 #
straight-curve $-1 -1 $-1 65.58092660836351229 93.42609442285368004 -19.68059288056999989 -22.20641236486130055 -0.743140905076642766 -20.86512380689214297 F -0 F 0.009842519685039506985 #
point $-1 -1 $-1 65.36235955752826499 93.41878004386670398 -19.88595827237012159 #
ellipse-curve $-1 -1 $-1 67.54803006588215908 93.49192383335129364 -17.83230435438355244 -0.03870675441447122417 0.9992348883534619697 0.00560580591372759722 -2.18567050834102794 -0.07314378948438396422 -2.053653917974520571 1 F 8.058054224074055664e-15 F 0.05000000000031005337 #
End-of-ACIS-data 