700 0 1 0           
4 LibG 20 ASM 226.0.3.65535 NT 24 Sat Jun  4 12:40:47 2022 
1000 9.999999999999999547e-07 1.000000000000000036e-10 
body $-1 -1 $-1 $1 $-1 $-1 #
lump $-1 -1 $-1 $-1 $2 $0 #
shell $-1 -1 $-1 $-1 $-1 $3 $-1 $1 #
face $-1 -1 $-1 $4 $5 $2 $-1 $6 reversed single #
face $-1 -1 $-1 $7 $8 $2 $-1 $9 forward single #
loop $-1 -1 $-1 $-1 $10 $3 #
plane-surface $-1 -1 $-1 65.57054471641306748 93.50520762622804227 -20.47521945579899239 0.5983582857245011155 0.01868449216293225495 0.8010107687524866682 80.11506259065457414 0 -59.8462759584545978 forward_v I I I I #
face $-1 -1 $-1 $-1 $11 $2 $-1 $12 reversed single #
loop $-1 -1 $-1 $-1 $13 $4 #
plane-surface $-1 -1 $-1 66.10906717354535544 93.52202366917407517 -19.75430976394821769 0.5983582857245011155 0.01868449216293225495 0.8010107687524866682 80.11506259065457414 0 -59.8462759584545978 forward_v I I I I #
tcoedge-coedge $-1 -1 $-1 $10 $10 $14 $15 reversed $5 $16 -6.283185307179785184 -1.985280280216582732e-13 #
loop $-1 -1 $-1 $-1 $17 $7 #
spline-surface $-1 -1 $-1 forward { exactsur full nubs 3 3 periodic open none none 5 2 
	-2.644498420921366588e-14 3 0.2857142857142668246 1 0.5714285714285600726 1 0.8571428571428533205 1 1 3 
	0 3 1 3 
	66.10983645229146077 93.50146936861078473 -19.7544049657194023 
	66.1195010482226877 93.50220667738857117 -19.76164165656031102 
	66.13498045851761731 93.53102217348840952 -19.77387699308949109 
	66.0965566964590181 93.55200728321882764 -19.74566378902312636 
	66.08906359234121908 93.51024758050930075 -19.73909231710534584 
	66.10500415432585442 93.5011007142218773 -19.75078662029894616 
	66.10983645229146077 93.50146936861078473 -19.7544049657194023 
	65.93032896658070285 93.49586402096210236 -19.99470819633632601 
	65.93999356251191557 93.49660132973990301 -20.00194488717723473 
	65.95547297280684518 93.52541682583974136 -20.01418022370641481 
	65.91704921074827439 93.54640193557015948 -19.98596701964005362 
	65.90955610663044695 93.50464223286061838 -19.97939554772227311 
	65.9254966686150965 93.49549536657319493 -19.99108985091587343 
	65.93032896658070285 93.49586402096210236 -19.99470819633632601 
	65.75082148086993072 93.49025867331349104 -20.23501142695326038 
	65.76048607680115765 93.49099598209129169 -20.2422481177941691 
	65.77596548709611568 93.51981147819108742 -20.25448345432334207 
	65.73754172503750226 93.54079658792151974 -20.22627025025698444 
	65.73004862091967482 93.49903688521199285 -20.21969877833919327 
	65.74598918290432437 93.48989001892459783 -20.23139308153280069 
	65.75082148086993072 93.49025867331349104 -20.23501142695326038 
	65.5713139951591728 93.48465332566482289 -20.47531465757018054 
	65.58097859109039973 93.48539063444262354 -20.48255134841109282 
	65.59645800138534355 93.51420613054240505 -20.49478668494026579 
	65.55803423932674434 93.53519124027285159 -20.46657348087390815 
	65.5505411352089169 93.4934315375633247 -20.46000200895611698 
	65.56648169719356645 93.48428467127591546 -20.47169631214972441 
	65.5713139951591728 93.48465332566482289 -20.47531465757018054 
	0 
	
	0 
	3 -2.644498420921366588e-14 0.2857142857142668246 0.8571428571428533205 
	1 0.5714285714285600726 
	0 
	0 
	0 
	F 1 F 0 F 1 F 0 } I I I I #
tcoedge-coedge $-1 -1 $-1 $13 $13 $17 $18 forward $8 $19 -3.141592653589793116 3.141592653589793116 #
tcoedge-coedge $-1 -1 $-1 $20 $21 $10 $15 forward $11 $22 1.985280280216582732e-13 6.283185307179785184 #
tedge-edge $-1 -1 $-1 $23 1.985280280216582732e-13 $23 6.283185307179785184 $14 $24 forward @7 unknown 0.0008063989224035428153 #
pcurve $-1 -1 $-1 0 forward { exppc nurbs 2 periodic 5 
	-6.283185307179785184 2 -4.712388980384888626 2 -3.141592653589992068 2 -1.570796326795095288 2 -1.985280280216582732e-13 2 
	5.000950184630426065e-06 -0.0001999374664669595347 1 
	-0.000194936516282440131 -0.0002049384166514789385 0.7071067811884439447 
	-0.000199937466467070557 -5.000950184519403763e-06 1 
	-0.0002049384166515899608 0.0001949365162825511533 0.7071067811875684228 
	-5.000950184519403763e-06 0.0001999374664669595347 1 
	0.0001949365162825511533 0.0002049384166515899608 0.7071067811884439447 
	0.000199937466467070557 5.000950184519403763e-06 1 
	0.0002049384166517009831 -0.000194936516282440131 0.7071067811875684228 
	5.000950184630426065e-06 -0.0001999374664669595347 1 
	0 
	plane 65.57054471641306748 93.50520762622804227 -20.47521945579899239 -0.5983582857245011155 -0.01868449216293225495 -0.8010107687524866682 80.11506259065457414 0 -59.8462759584545978 reverse_v I I I I 
	} 0 0 #
tcoedge-coedge $-1 -1 $-1 $21 $20 $13 $18 reversed $11 $25 -3.141592653589793116 3.141592653589793116 #
tedge-edge $-1 -1 $-1 $26 -3.141592653589793116 $26 3.141592653589793116 $17 $27 forward @7 unknown 0.0008063989224344838853 #
pcurve $-1 -1 $-1 0 forward { exppc nurbs 2 periodic 5 
	-3.141592653589793116 2 -1.570796326794896558 2 0 2 1.570796326794896558 2 3.141592653589793116 2 
	5.000950184630426065e-06 -0.0001999374664669595347 1 
	0.0002049384166515899608 -0.000194936516282440131 0.707106781186494171 
	0.000199937466467070557 5.000950184519403763e-06 1 
	0.0001949365162825511533 0.0002049384166515899608 0.7071067811867574049 
	-5.000950184630426065e-06 0.0001999374664669595347 1 
	-0.0002049384166515899608 0.000194936516282440131 0.707106781186494171 
	-0.000199937466467070557 -5.000950184519403763e-06 1 
	-0.000194936516282440131 -0.0002049384166514789385 0.7071067811867574049 
	5.000950184630426065e-06 -0.0001999374664669595347 1 
	0 
	plane 66.10906717354535544 93.52202366917407517 -19.75430976394821769 0.5983582857245011155 0.01868449216293225495 0.8010107687524866682 80.11506259065457414 0 -59.8462759584545978 forward_v I I I I 
	} 0 0 #
tcoedge-coedge $-1 -1 $-1 $17 $14 $21 $28 reversed $11 $29 -1 -0 #
tcoedge-coedge $-1 -1 $-1 $14 $17 $20 $28 forward $11 $30 0 1 #
pcurve $-1 -1 $-1 0 forward { exppc nubs 1 periodic 2 
	1.985280280216582732e-13 1 6.283185307179785184 1 
	0.9988696921289150765 1 
	1.9988696921289415 1 
	6.546829441342899819e-09 
	spline forward { ref 0 } I I I I 
	} -1.000000000000026423 0 #
tvertex-vertex $-1 -1 $-1 $15 $31 0.000573028652405044108 #
ellipse-curve $-1 -1 $-1 65.57054471641306748 93.50520762622804227 -20.47521945579899239 0.5983582857245011155 0.01868449216293225495 0.8010107687524866682 0.0006242209670444615272 -0.01999025633113047512 0 1 I I #
pcurve $-1 -1 $-1 0 forward { exppc nubs 1 periodic 2 
	-3.141592653589793116 1 3.141592653589793116 1 
	0.998869692129027209 4.979944399753040996e-14 
	-0.001130307870999214259 4.979944399753040996e-14 
	6.54681917158904432e-09 
	spline forward { ref 0 } I I I I 
	} 0 0 #
tvertex-vertex $-1 -1 $-1 $18 $32 0.0005730286524616819621 #
ellipse-curve $-1 -1 $-1 66.10906717354535544 93.52202366917407517 -19.75430976394821769 0.5983582857245011155 0.01868449216293225495 0.8010107687524866682 -0.0006242209670444615272 0.01999025633113047512 0 1 I I #
tedge-edge $-1 -1 $-1 $26 0 $23 1 $20 $33 forward @7 tangent 0.0005730286524551950721 #
pcurve $-1 -1 $-1 0 forward { exppc nubs 1 open 2 
	-1 1 -0 1 
	0.9988696921289836883 1 
	0.9988696921290509678 5.194779212653182706e-14 
	8.199650856230148466e-12 
	spline forward { ref 0 } I I I I 
	} 0 0 #
pcurve $-1 -1 $-1 0 forward { exppc nubs 1 open 2 
	0 1 1 1 
	0.9988696921290304287 5.22697282824939989e-14 
	0.9988696921289575981 1 
	1.159605744760483503e-11 
	spline forward { ref 0 } I I I I 
	} -1.000000000000026423 0 #
point $-1 -1 $-1 65.57116893738012209 93.48521736989692954 -20.47521945579899239 #
point $-1 -1 $-1 66.10969139451241006 93.50203341284294822 -19.75430976394821769 #
straight-curve $-1 -1 $-1 66.10969139451241006 93.50203341284294822 -19.75430976394821769 -0.5385224571322844156 -0.01681604294602178848 -0.7209096918507740259 F 0 F 1 #
End-of-ACIS-data 