700 0 1 0           
4 LibG 20 ASM 226.0.3.65535 NT 24 Sat Jun  4 12:41:15 2022 
1000 9.999999999999999547e-07 1.000000000000000036e-10 
body $-1 -1 $-1 $1 $-1 $-1 #
lump $-1 -1 $-1 $-1 $2 $0 #
shell $-1 -1 $-1 $-1 $-1 $3 $-1 $1 #
face $-1 -1 $-1 $4 $5 $2 $-1 $6 forward single #
face $-1 -1 $-1 $7 $8 $2 $-1 $9 forward single #
loop $-1 -1 $-1 $-1 $10 $3 #
spline-surface $-1 -1 $-1 forward { sumsur 
	intcurve forward { exactcur full nubs 3 open 4 
	0 3 0.001130307871084923477 1 0.2868445935853780604 1 0.5002351707531802472 3 
	66.10972166160479446 93.50146125909107298 -19.75431902744812263 
	66.10975995438387542 93.50146374885926548 -19.75434769038576022 
	66.11947042935142349 93.50214967921932896 -19.76161745459017283 
	66.13302128388903611 93.52737509729091414 -19.77232840949157833 
	66.11519052342946168 93.54123340815291954 -19.75933202021975177 
	66.10815999262516129 93.54169853858465444 -19.75409103495755048 
	0 
	
	null_surface 
	null_surface 
	nullbs 
	nullbs 
	I I 
	0 
	0 
	2 0.001130307871084923477 0.2868445935853780604 
	F 1 F 0 } F 0 F 0.5002351707531802472 
	straight 0 0 0 -18.23796054888275009 -0.5695033211237703341 -24.41480823157588631 I I 
	0 0 0 
	none F 0 F 0.5002351707531802472 F 0 F 0.03543307086486962437 OPEN OPEN NON_SINGULAR NON_SINGULAR 
	0 
	0 
	2 0.001130307871084923477 0.2868445935853780604 
	0 
	0 
	0 
	} F 0 F 0.5000002454359351312 F 0.009840026346774213492 F 0.01968504405532651644 #
face $-1 -1 $-1 $11 $12 $2 $-1 $13 reversed single #
loop $-1 -1 $-1 $-1 $14 $4 #
spline-surface $-1 -1 $-1 forward { sumsur 
	intcurve forward { exactcur full nubs 3 open 4 
	0 3 0.07255887929957927085 1 0.3582731650138725188 1 0.5000000000000701661 3 
	66.10818323912911865 93.54169698088009 -19.75410836385484004 
	66.10579221645274117 93.54185922914058438 -19.75232604486599897 
	66.09432062254404627 93.53954545425486344 -19.74370274634879507 
	66.08907544966160685 93.51031366235824294 -19.73910271600635014 
	66.10492021367835491 93.5011490724978529 -19.7507250443076714 
	66.10972166160482288 93.50146125909107298 -19.75431902744812618 
	0 
	
	null_surface 
	null_surface 
	nullbs 
	nullbs 
	I I 
	0 
	0 
	2 0.07255887929957927085 0.3582731650138725188 
	F 1 F 0 } F 0 F 0.5000000000000701661 
	straight 0 0 0 -18.23796054888250495 -0.5695033211242354065 -24.41480823157605329 I I 
	0 0 0 
	none F 0 F 0.5000000000000701661 F 0 F 0.03543307086484135532 OPEN OPEN NON_SINGULAR NON_SINGULAR 
	0 
	0 
	2 0.07255887929957927085 0.3582731650138725188 
	0 
	0 
	0 
	} F 0 F 0.499980143883149375 F 0.009840147226714087217 F 0.01968503924291647653 #
coedge $-1 -1 $-1 $15 $16 $17 $18 reversed $5 $19 #
face $-1 -1 $-1 $20 $21 $2 $-1 $22 reversed single #
loop $-1 -1 $-1 $-1 $23 $7 #
plane-surface $-1 -1 $-1 65.98698169464771013 93.44381044705011163 -20.03476050255723351 -0.03870675450898109632 0.9992348883503048285 0.005605805823921707065 0 -0.1709931015569356727 30.47952035973040097 forward_v I I I I #
coedge $-1 -1 $-1 $24 $25 $26 $27 reversed $8 $28 #
coedge $-1 -1 $-1 $29 $10 $25 $30 forward $5 $31 #
coedge $-1 -1 $-1 $10 $29 $24 $32 forward $5 $33 #
coedge $-1 -1 $-1 $26 $26 $10 $18 forward $21 $-1 #
edge $-1 -1 $-1 $34 0 $35 0.0004563556146146527143 $17 $36 forward @7 unknown #
pcurve $-1 -1 $-1 -1 $36 0 0 #
face $-1 -1 $-1 $37 $38 $2 $-1 $39 forward single #
loop $-1 -1 $-1 $40 $26 $11 #
cone-surface $-1 -1 $-1 67.59215576604054831 92.35279606109726558 -17.83869497297836659 -0.03870675452564763946 0.9992348883497816914 0.005605805802086367973 2.119731354610234764 0.09147871979502081308 -1.669841497908789218 1 I I 0 1 2.700000000005804868 forward I I I I #
coedge $-1 -1 $-1 $41 $42 $43 $44 forward $12 $-1 #
coedge $-1 -1 $-1 $45 $14 $16 $32 reversed $8 $46 #
coedge $-1 -1 $-1 $14 $45 $15 $30 reversed $8 $47 #
coedge $-1 -1 $-1 $17 $17 $14 $27 forward $21 $-1 #
edge $-1 -1 $-1 $35 5.048535446305489837e-08 $34 0.0009446331012304801144 $26 $48 forward @7 unknown #
pcurve $-1 -1 $-1 -1 $48 0 0 #
coedge $-1 -1 $-1 $16 $15 $49 $50 reversed $5 $51 #
edge $-1 -1 $-1 $34 0.009842519544251845942 $52 0.01968503924287953039 $25 $53 forward @7 unknown #
pcurve $-1 -1 $-1 0 reversed { exppc nubs 1 open 2 
	-0.02952755905403319295 1 0 1 
	0.5000001747613762593 0.02952755905403417133 
	0.5000001747613108671 8.13420939821240609e-16 
	1.397433579292616412e-14 
	spline reversed { ref 0 } F 0 F 0.5001175853765790214 F 0 F 0.02952755905404623807 
	} 0 0 #
edge $-1 -1 $-1 $54 0.009842519861512988646 $35 0.0196850395718070996 $24 $55 forward @7 unknown #
pcurve $-1 -1 $-1 0 reversed { exppc nubs 1 open 2 
	-0.02952755905507846446 1 -1.861586257612148831e-16 1 
	0 1.286622355548201689e-15 
	0 0.02952755905403443154 
	1.101862658231943838e-14 
	spline reversed { ref 0 } F 0 F 0.5001175853765790214 F 0 F 0.02952755905404623807 
	} 0 0 #
vertex $-1 -1 $-1 $27 $56 #
vertex $-1 -1 $-1 $27 $57 #
intcurve-curve $-1 -1 $-1 forward { surfintcur full nubs 3 open 10 
	0 3 8.47670316269629945e-05 2 0.0001796265477868805847 2 0.000247223379779849795 2 0.0002874934452236098717 2 
	0.0003230191926306849679 2 0.0003704667578204953347 2 0.0004137823598089724014 2 0.0004351043372296003781 2 0.0004563556146146527143 3 
	65.92867573171628237 93.53609163495785594 -19.99441157295644089 
	65.93093771512640444 93.53593813756062048 -19.99609790108191021 
	65.93321919651423002 93.53522476920879569 -19.99777994654694524 
	65.93767771071613026 93.53286896481868951 -20.00103532487983315 
	65.9399165543117789 93.53106971913503287 -20.0026496469641728 
	65.94300434086464691 93.5272029935030389 -20.00483949239639969 
	65.94408654777609513 93.52533568591174173 -20.00559359472332233 
	65.94521878709824136 93.52201689493274728 -20.00635086141187813 
	65.94570006971926546 93.52014654888360212 -20.00666201401334732 
	65.94575383645600652 93.51539455605798423 -20.00659284011672767 
	65.94542126340671473 93.51316428415813675 -20.00629730404030582 
	65.94406804249628351 93.50825344163550312 -20.00518850393474679 
	65.94283486236098213 93.50559862611422091 -20.00421895869446942 
	65.93989701170914941 93.5012544349621777 -20.00194799844190996 
	65.93820655083280258 93.49944756942981883 -20.00065482915635684 
	65.93537494772709806 93.49747428218270784 -19.9985061815733971 
	65.93438981833418211 93.49694034152828692 -19.99776119559775367 
	65.93234314649131989 93.49616517924867765 -19.99621877072729603 
	65.93128926120485289 93.49592581436085936 -19.99542708459895479 
	65.93021417937259798 93.4958559115510468 -19.99462225340836596 
	8.521539619438179355e-07 
	
	spline reversed { ref 0 } F 0 F 0.5000002454359351312 F 0 F 0.02952755905406463655 
	cone 67.59215576604054831 92.35279606109726558 -17.83869497297836659 -0.03870675452564763946 0.9992348883497816914 0.005605805802086367973 2.119731354610234764 0.09147871979502081308 -1.669841497908789218 1 I I -0 -1 2.700000000005804868 forward I I I I 
	nubs 3 open 10 
	0 3 8.47670316269629945e-05 3 0.0001796265477868805847 3 0.000247223379779849795 3 0.0002874934452236098717 3 
	0.0003230191926306849679 3 0.0003704667578204953347 3 0.0004137823598089724014 3 0.0004351043372296003781 3 0.0004563556146146527143 3 
	0.5000002454359351312 0.009842519544236979362 
	0.4771182801158919684 0.009842524744153206134 
	0.4546432827238497953 0.009842377833531241668 
	0.4325883290804384829 0.009842127344950107534 
	0.4079074809796074952 0.009841847032838737727 
	0.3827398103888045577 0.009841423041688527815 
	0.3570969329871286346 0.009841015664700551377 
	0.3388238345600271817 0.009840725368113253241 
	0.3200287201202566267 0.009840442766615317693 
	0.3008325574417460291 0.009840259863106796609 
	0.2893966557205959744 0.009840150900363412931 
	0.2728403090754469296 0.009840026346774213492 
	0.2516568541530138647 0.009840047399307995726 
	0.2329690755142004299 0.009840065971589644078 
	0.2147353191747111423 0.009840195294352874905 
	0.1970378326241293832 0.009840382216511662714 
	0.173401379963958463 0.009840631866468716946 
	0.1501174633534876623 0.009840988534887639555 
	0.1271496033092558708 0.009841331429035610895 
	0.1061818954780299334 0.00984164446230461655 
	0.08498082000758175325 0.009841953488333610167 
	0.06357480255214907616 0.009842175396403763862 
	0.05303775354676479314 0.009842284629997297141 
	0.04243892582231401783 0.009842373047175615591 
	0.03178740144683366714 0.009842432654487389548 
	0.02117119570702323192 0.00984249206415149791 
	0.01057843592227572689 0.009842522388622021098 
	0 0.009842519493946294551 
	
	nullbs 
	I I 
	0 
	2 0.0002613998375735982014 0.0004555987425244470228 
	0 
	} I I #
face $-1 -1 $-1 $58 $59 $2 $-1 $60 forward single #
loop $-1 -1 $-1 $-1 $61 $20 #
plane-surface $-1 -1 $-1 65.69350040514476063 93.43331123090332824 -20.18969365192666743 -0.7850856868909521502 -0.03388100733173748935 0.6184598140389951926 18.86148400290097626 0 23.94315812937613686 forward_v I I I I #
loop $-1 -1 $-1 $-1 $43 $11 #
coedge $-1 -1 $-1 $62 $23 $61 $63 forward $12 $-1 #
coedge $-1 -1 $-1 $23 $62 $64 $65 forward $12 $-1 #
coedge $-1 -1 $-1 $66 $67 $23 $44 reversed $40 $-1 #
edge $-1 -1 $-1 $68 0 $69 0.04999999999963838926 $23 $70 forward @7 unknown #
coedge $-1 -1 $-1 $25 $24 $71 $72 reversed $8 $73 #
pcurve $-1 -1 $-1 0 reversed { exppc nubs 1 open 2 
	1.861586257612148831e-16 1 0.02952755905507846446 1 
	0.4999999999997505329 0.02952755905403490685 
	0.4999404316510151491 1.652567604598912141e-15 
	3.148495364068714824e-14 
	spline reversed { ref 2 } F 0 F 0.5000000000000701661 F 0 F 0.02952755905403570483 
	} 0 0 #
pcurve $-1 -1 $-1 0 reversed { exppc nubs 1 open 2 
	-0 1 0.02952755905403319295 1 
	1.747614385558076275e-07 1.4442722403600011e-15 
	1.747612795135880434e-07 0.02952755905403418868 
	2.843672938147510227e-14 
	spline reversed { ref 2 } F 0 F 0.5000000000000701661 F 0 F 0.02952755905403570483 
	} 0 0 #
intcurve-curve $-1 -1 $-1 forward { surfintcur full nubs 3 open 10 
	0 3 6.350346843800888739e-05 2 0.0001424703869281432355 2 0.0002339142220385199186 2 0.0003624073547467046965 2 
	0.0005216181149375628909 2 0.0006899209834803773315 2 0.0008139786327879389421 2 0.00088565415750757495 2 0.0009446331012304801144 3 
	65.93021417937261219 93.4958559115510468 -19.99462225340838728 
	65.92852192521095844 93.49574587962877104 -19.99335539269989681 
	65.92680394286095691 93.4960532285058008 -19.99207580787723515 
	65.92315007285911577 93.49744130692324973 -19.98936535614397769 
	65.92120767883928067 93.49871315477147959 -19.98793245622068682 
	65.9176387804583328 93.50229075537608026 -19.98532354951096224 
	65.91655498924762924 93.50428234442303221 -19.98454983936917273 
	65.91502468493642652 93.50775534675672418 -19.98347348789729594 
	65.91445326467388099 93.50997912595335038 -19.98309295931375118 
	65.91381202471559675 93.51508802375188623 -19.98272811918453584 
	65.91389290886952779 93.51801760395599672 -19.98285918483330192 
	65.91483431885362165 93.52375712150787024 -19.98370899510375409 
	65.9157534964391516 93.52663842395453742 -19.98447386720206964 
	65.91809554480485644 93.5309219234471243 -19.98634503418795916 
	65.91933266861779828 93.53252953116137292 -19.98731673398642528 
	65.92165821058048891 93.53442219622931475 -19.98911208164448183 
	65.92285584057341907 93.53519709655124359 -19.9900313597063608 
	65.92586344369215112 93.53606780530824949 -19.99230781024354897 
	65.92727555932201255 93.53618665264313847 -19.993367732452338 
	65.928675755978702 93.53609163331138632 -19.99441159104428678 
	2.194077540724564834e-06 
	
	spline reversed { ref 2 } F 0 F 0.5000000000000701661 F 0 F 0.02952755905403652709 
	cone 67.59215576604054831 92.35279606109726558 -17.83869497297836659 -0.03870675452564763946 0.9992348883497816914 0.005605805802086367973 2.119731354610234764 0.09147871979502081308 -1.669841497908789218 1 I I -0 -1 2.700000000005804868 forward I I I I 
	nubs 3 open 10 
	0 3 6.350346843800888739e-05 3 0.0001424703869281432355 3 0.0002339142220385199186 3 0.0003624073547467046965 3 
	0.0005216181149375628909 3 0.0006899209834803773315 3 0.0008139786327879389421 3 0.00088565415750757495 3 0.0009446331012304801144 3 
	0.5000000000000701661 0.009842519493946731701 
	0.4833488003676792433 0.009842514937508196199 
	0.4669630790242019769 0.00984242520961074556 
	0.4508792188447306448 0.009842268543114401913 
	0.4308788486753614144 0.009842073727449190956 
	0.4108338549479207957 0.00984176911641421702 
	0.390738165534808557 0.009841447902961323463 
	0.367467320676508058 0.009841075937199163237 
	0.3490279531428361337 0.009840798163757916509 
	0.3360765507419496978 0.009840642792630005173 
	0.3178777704147085492 0.009840424471483109892 
	0.2997612473218253526 0.00984027868311414429 
	0.2817480354586788804 0.009840219972595883047 
	0.2594285768715519636 0.009840147226714087217 
	0.2371638706553773068 0.009840207908276278961 
	0.2149568688760783164 0.009840370055652110717 
	0.1914816835512235527 0.009840541462838700917 
	0.1674371994336278646 0.009840831410021939549 
	0.1428126698253727456 0.00984116015037568917 
	0.1246616942362225311 0.009841402468025244391 
	0.1060217753182133571 0.009841666949156504043 
	0.08698812765756713805 0.009841900303120499835 
	0.07599125087471537976 0.00984203512566395565 
	0.06149294050745035545 0.009842207736508366833 
	0.04349406418229709304 0.009842343954850854559 
	0.02868350342241298562 0.009842456043516923866 
	0.0141642263103279268 0.009842516326117300637 
	0 0.009842519544292721231 
	
	nullbs 
	I I 
	0 
	2 0.0001904559709221092503 0.0008418428793929981805 
	0 
	} I I #
coedge $-1 -1 $-1 $71 $71 $29 $50 forward $74 $-1 #
edge $-1 -1 $-1 $54 0 $52 0.001463715314902638885 $49 $75 forward @7 unknown #
pcurve $-1 -1 $-1 -1 $75 0 0 #
vertex $-1 -1 $-1 $72 $76 #
straight-curve $-1 -1 $-1 66.10818322185244256 93.54169698205241446 -19.75410835097648032 -18.23796054888259732 -0.5695033211237943149 -24.41480823157599289 F -0 F 0.02952755905403319295 #
vertex $-1 -1 $-1 $72 $77 #
straight-curve $-1 -1 $-1 65.57119920447249228 93.48464521614513956 -20.47522871929890798 18.23775550446563898 0.569490049975105439 24.41496170880292382 F 1.861586257612148831e-16 F 0.02952755905507846446 #
point $-1 -1 $-1 65.92867573870277909 93.53609163448372499 -19.99441157816493231 #
point $-1 -1 $-1 65.93021014327884188 93.4958556503146383 -19.994619231916964 #
face $-1 -1 $-1 $78 $74 $2 $-1 $79 forward single #
loop $-1 -1 $-1 $-1 $64 $37 #
plane-surface $-1 -1 $-1 65.98698169464771013 93.44381044704999795 -20.03476050255723706 0.8150004848252214718 0.03481513462782467178 -0.5784134474020297123 -17.64073623017023351 0 -24.85628341602097535 forward_v I I I I #
coedge $-1 -1 $-1 $80 $81 $41 $63 reversed $38 $-1 #
coedge $-1 -1 $-1 $42 $41 $82 $83 forward $12 $-1 #
edge $-1 -1 $-1 $69 -1.918346747299375362e-16 $84 0.009842519685039298818 $41 $85 forward @7 unknown #
coedge $-1 -1 $-1 $86 $87 $42 $65 reversed $59 $-1 #
edge $-1 -1 $-1 $88 4.457981032905988769e-16 $68 0.009842519685039531271 $42 $89 forward @7 unknown #
coedge $-1 -1 $-1 $90 $43 $87 $91 reversed $40 $-1 #
coedge $-1 -1 $-1 $43 $90 $80 $92 reversed $40 $-1 #
vertex $-1 -1 $-1 $44 $93 #
vertex $-1 -1 $-1 $44 $94 #
ellipse-curve $-1 -1 $-1 67.54803006588949188 93.4919238338173102 -17.83230435435289252 -0.03870675452606793521 0.9992348883497651491 0.005605805802130578268 -1.561048371241756882 -0.04811338676717760027 -2.202456148204343211 1 F 0 F 0.04999999999963838926 #
coedge $-1 -1 $-1 $49 $49 $45 $72 forward $74 $-1 #
edge $-1 -1 $-1 $52 0 $54 0.0004065068779422350252 $71 $95 forward @7 unknown #
pcurve $-1 -1 $-1 -1 $95 0 0 #
loop $-1 -1 $-1 $96 $71 $58 #
intcurve-curve $-1 -1 $-1 forward { surfintcur full nubs 3 open 10 
	0 3 7.522232825681050611e-05 2 0.0001942217539615953147 2 0.0003425988460451594424 2 0.000470640706969291194 2 
	0.0006004088999515639832 2 0.0007953654775544543405 2 0.001057365698248150486 2 0.001262268247696215952 2 0.001463715314902638885 3 
	65.75070669331219619 93.49025056389149313 -20.23492548449334194 
	65.75271124402924272 93.49038090129062084 -20.2364261170988442 
	65.75434097625597474 93.49107141645507113 -20.2376558916222109 
	65.75731398290913887 93.49270735429246315 -20.23990567811466335 
	65.75897362625308062 93.49415887175538842 -20.24117069000394409 
	65.76219588716926978 93.49802696000135427 -20.24364670562519208 
	65.76367640684149762 93.50064494508005453 -20.24480034256079719 
	65.76557824005301711 93.50590132007870636 -20.24632418038495985 
	65.76614180585517033 93.50855811294552211 -20.24680013075819573 
	65.76628081263527292 93.51393759865010225 -20.24702584040921494 
	65.76582177115820116 93.51591648643811538 -20.24673308804521099 
	65.7649149898950327 93.518898152140153 -20.24613323164701484 
	65.76409195261302898 93.52054158546704343 -20.24556419186408007 
	65.76175406936893353 93.52397659496506321 -20.24391703058448044 
	65.76009024576934792 93.5256395369295177 -20.24272515430263297 
	65.75690142365031932 93.52797474234264996 -20.24041529425935693 
	65.75539503522178109 93.52880600142131584 -20.23931600720169044 
	65.75233195580747747 93.52999874564007143 -20.23706450593786954 
	65.75074783208634699 93.53037909778529979 -20.23589238533679691 
	65.74916824575109331 93.53048628730125813 -20.23471480391397392 
	1.783145846825697241e-06 
	
	spline reversed { ref 0 } F 0 F 0.5000002454359351312 F 0 F 0.02952755905406463655 
	cone 67.59447817121545654 92.29284196736313106 -17.83903132147712967 -0.03870675443643415564 0.9992348883525820069 0.005605805918932294137 -2.445001454472641722 -0.1044454038711131044 1.735240342203617114 1 I I 0 1 2.999999999995676792 forward I I I I 
	nubs 3 open 10 
	0 3 7.522232825681050611e-05 3 0.0001942217539615953147 3 0.0003425988460451594424 3 0.000470640706969291194 3 
	0.0006004088999515639832 3 0.0007953654775544543405 3 0.001057365698248150486 3 0.001262268247696215952 3 0.001463715314902638885 3 
	0 0.01968503919779491379 
	0.01972399360474404867 0.01968504405532651644 
	0.03665298138838305603 0.0196849455294353208 
	0.04912094747546267431 0.01968485166956882373 
	0.06884488900255675281 0.01968470318612688952 
	0.08835679095786783122 0.01968447700283007182 
	0.1076138157609867613 0.01968422841279426905 
	0.131624867289556996 0.019683918452755262 
	0.1557774487468554514 0.01968356670320867141 
	0.1801044856992189969 0.01968329232641794976 
	0.2010974775311150375 0.01968305555324505185 
	0.2227836964043889145 0.01968287137612731788 
	0.2450769527158822014 0.01968282423727139505 
	0.2676707791907042555 0.01968277646286302474 
	0.285010299773317155 0.0196828814156752227 
	0.2958604110001518683 0.01968296503459416105 
	0.3121610198225568955 0.01968309065904715396 
	0.3281933982117787862 0.0196832861139687211 
	0.343882258175058575 0.0196835005050597471 
	0.3649663622527599127 0.01968378862313123825 
	0.3855921865739992405 0.01968410967542581769 
	0.4056946700001235473 0.01968437116096919889 
	0.4214162220405927584 0.01968457566100488901 
	0.4371337267686785655 0.01968474913780511246 
	0.4528474572840062162 0.01968486587623345316 
	0.4682961910148041862 0.01968498064598172073 
	0.4840213978258331995 0.01968504251093392693 
	0.5000002454359351312 0.01968503924286582607 
	
	nullbs 
	I I 
	0 
	2 1.44100779815118878e-06 0.0005690267585115535171 
	0 
	} I I #
point $-1 -1 $-1 65.74916825273760423 93.53048628682714138 -20.23471480912242981 #
point $-1 -1 $-1 65.75070467525461027 93.49025043327294782 -20.23492397376192997 #
face $-1 -1 $-1 $-1 $97 $2 $-1 $98 forward single #
cone-surface $-1 -1 $-1 67.59447817121545654 92.29284196736313106 -17.83903132147712967 -0.03870675443643415564 0.9992348883525820069 0.005605805918932294137 -2.445001454472641722 -0.1044454038711131044 1.735240342203617114 1 I I 0 1 2.999999999995676792 forward I I I I #
coedge $-1 -1 $-1 $99 $61 $67 $92 forward $38 $-1 #
coedge $-1 -1 $-1 $61 $99 $100 $101 reversed $38 $-1 #
coedge $-1 -1 $-1 $100 $102 $62 $83 reversed $96 $-1 #
edge $-1 -1 $-1 $84 -6.267375507471411593e-16 $88 0.05000000000003945733 $62 $103 forward @7 unknown #
vertex $-1 -1 $-1 $63 $104 #
straight-curve $-1 -1 $-1 65.87895337121837258 93.43917249118665325 -19.95395472217090571 -18.84202135307829096 -0.5955040447879008658 -23.95107526318564339 F -1.918346747299375362e-16 F 0.009842519685039298818 #
coedge $-1 -1 $-1 $105 $64 $102 $106 forward $59 $-1 #
coedge $-1 -1 $-1 $64 $105 $66 $91 forward $59 $-1 #
vertex $-1 -1 $-1 $83 $107 #
straight-curve $-1 -1 $-1 65.81353187562184814 93.43846451519593188 -20.27947785235593869 17.62250161302999985 0.5431466763731592762 24.86328273954788415 F 4.457981032905988769e-16 F 0.009842519685039531271 #
coedge $-1 -1 $-1 $67 $66 $108 $109 reversed $40 $-1 #
edge $-1 -1 $-1 $110 0 $68 0.004921259842519187105 $87 $111 forward @7 unknown #
edge $-1 -1 $-1 $69 0 $112 0.004921259842520059671 $80 $113 forward @7 unknown #
point $-1 -1 $-1 65.98698169464772434 93.44381044705012584 -20.03476050255723706 #
point $-1 -1 $-1 65.87895337121837258 93.43917249118668167 -19.95395472217089861 #
intcurve-curve $-1 -1 $-1 forward { surfintcur full nubs 3 open 10 
	0 3 6.86896518470724596e-05 2 0.0001103779813044989669 2 0.0001466435753136428204 2 0.0001947983064629041946 2 
	0.0002444708651247309091 2 0.0002841835895169316623 2 0.0003242816116013688276 2 0.0003658004021899248655 2 0.00040652408133017774 3 
	65.74916827001361241 93.5304862856547885 -20.23471482200169547 
	65.74733529917965313 93.53061067289490893 -20.23334834256997539 
	65.74548305154135619 93.53036846947897232 -20.23195549112796598 
	65.74271818870090556 93.52917691440664782 -20.22985218356613046 
	65.7412975885036559 93.52836108506753021 -20.22876543706884078 
	65.73852873721345702 93.52525458053338525 -20.22660655097411464 
	65.73747594401538663 93.52348515377948956 -20.22577009225067357 
	65.73557238296052674 93.51902844128278502 -20.2242266117713605 
	65.73487658506553544 93.51617698100722009 -20.22363227044694867 
	65.73428964771773053 93.51032732457736074 -20.22304922078161127 
	65.73441667598918059 93.50724899845464222 -20.22307241882933582 
	65.73555455071166875 93.5020287226521134 -20.22380995589055175 
	65.73637935496012119 93.49984157173220467 -20.22438239046962494 
	65.73873627214393878 93.49599613281128541 -20.22607201841238478 
	65.74015640321385945 93.49453524490942868 -20.22710887558743664 
	65.74286770363283949 93.49237424581460232 -20.22909960324299661 
	65.74438833240276381 93.4915164811259416 -20.23022262343065591 
	65.74749951686429483 93.49041317664769224 -20.232530638754195 
	65.74911434266955723 93.49014702805216359 -20.23373343019738257 
	65.75070669331222462 93.49025056389147892 -20.23492548449336681 
	9.79832456661894966e-07 
	
	spline reversed { ref 2 } F 0 F 0.5000000000000701661 F 0 F 0.02952755905403652709 
	cone 67.59447817121545654 92.29284196736313106 -17.83903132147712967 -0.03870675443643415564 0.9992348883525820069 0.005605805918932294137 -2.445001454472641722 -0.1044454038711131044 1.735240342203617114 1 I I 0 1 2.999999999995676792 forward I I I I 
	nubs 3 open 10 
	0 3 6.86896518470724596e-05 3 0.0001103779813044989669 3 0.0001466435753136428204 3 0.0001947983064629041946 3 
	0.0002444708651247309091 3 0.0002841835895169316623 3 0.0003242816116013688276 3 0.0003658004021899248655 3 0.00040652408133017774 3 
	0 0.01968503924291647653 
	0.01854204176232120832 0.01968503545136434524 
	0.03766798228522112019 0.01968494175599319607 
	0.05724580617727628717 0.01968477576878172736 
	0.06912775273726975978 0.01968467502974213107 
	0.08585677332890778723 0.01968450362581766408 
	0.1071136074914813829 0.01968424952663423017 
	0.1256053947060986886 0.01968402848017004186 
	0.1436678041367701608 0.01968379868779598918 
	0.1612235107856479777 0.01968360050503043662 
	0.1845345954903093166 0.0196833373509844485 
	0.2074416224339052095 0.01968312543240402154 
	0.2299788235422563776 0.01968301993661353971 
	0.2532263927303802786 0.01968291111561680171 
	0.2766403313344426573 0.01968291408240227525 
	0.3002015929914964576 0.01968305003083501564 
	0.3190385910388343071 0.0196831587202761539 
	0.3378287097400974881 0.01968335109594262361 
	0.3565827650984784158 0.01968359563351154001 
	0.3755187745876888972 0.01968384254361375471 
	0.3926476018437137228 0.01968410771811946944 
	0.4075055886320548271 0.01968431149622859935 
	0.422890029309294424 0.0196845224946818817 
	0.4383049689166333973 0.01968470941520161083 
	0.4537527938277805539 0.01968483788966912673 
	0.4689047829916884735 0.01968496390376825098 
	0.4843318936160779242 0.01968503533911355324 
	0.5000000000000701661 0.01968503919779557992 
	
	nullbs 
	I I 
	0 
	2 8.422325939242612759e-05 0.0002853804081243213478 
	0 
	} I I #
loop $-1 -1 $-1 $-1 $82 $58 #
loop $-1 -1 $-1 $-1 $114 $78 #
plane-surface $-1 -1 $-1 65.98117568147156931 93.59369568030253106 -20.03391963168341761 -0.03870675453921715303 0.9992348883489987621 0.005605805847939827891 0 -0.1709931022897574204 30.47952035972629048 forward_v I I I I #
coedge $-1 -1 $-1 $81 $80 $115 $116 reversed $38 $-1 #
coedge $-1 -1 $-1 $117 $82 $81 $101 forward $96 $-1 #
edge $-1 -1 $-1 $84 6.674053101820185195e-15 $118 0.00492125984251987926 $100 $119 forward @7 unknown #
coedge $-1 -1 $-1 $82 $117 $86 $106 reversed $96 $-1 #
ellipse-curve $-1 -1 $-1 67.54803006589244774 93.49192383340117374 -17.83230435437247863 0.03870675444362847023 -0.9992348883523127778 -0.005605805917244009208 -1.854529660747652242 -0.05861260249837468156 -2.357389297554196794 1 F -6.267375507471411593e-16 F 0.05000000000003945733 #
point $-1 -1 $-1 65.69350040514476063 93.43331123090329982 -20.18969365192666743 #
coedge $-1 -1 $-1 $87 $86 $114 $120 reversed $59 $-1 #
edge $-1 -1 $-1 $88 0 $121 0.004921259842519169758 $86 $122 forward @7 unknown #
point $-1 -1 $-1 65.81353187562186235 93.43846451519594609 -20.27947785235593159 #
coedge $-1 -1 $-1 $114 $115 $90 $109 forward $97 $-1 #
edge $-1 -1 $-1 $112 6.300536224521870134e-15 $110 0.05000000000043275383 $108 $123 forward @7 unknown #
vertex $-1 -1 $-1 $120 $124 #
straight-curve $-1 -1 $-1 65.98117568147156931 93.59369568030253106 -20.03391963168341761 1.179781877395385425 -30.45667939691851345 -0.1708649615604914684 F 0 F 0.004921259842519187105 #
vertex $-1 -1 $-1 $116 $125 #
straight-curve $-1 -1 $-1 65.87895337121837258 93.43917249118665325 -19.95395472217090571 -1.179781877392426015 30.45667939691861648 0.1708649615611488315 F 0 F 0.004921259842520059671 #
coedge $-1 -1 $-1 $126 $108 $105 $120 forward $97 $-1 #
coedge $-1 -1 $-1 $108 $126 $99 $116 forward $97 $-1 #
edge $-1 -1 $-1 $118 5.781360487200705207e-13 $112 0.009842519685039581578 $115 $127 forward @7 unknown #
coedge $-1 -1 $-1 $102 $100 $126 $128 reversed $96 $-1 #
vertex $-1 -1 $-1 $128 $129 #
straight-curve $-1 -1 $-1 65.69350040514481748 93.43331123090258927 -20.18969365192668874 -1.179781875181080908 30.45667939698849125 0.1708649643755862646 F 6.674053101820185195e-15 F 0.00492125984251987926 #
edge $-1 -1 $-1 $110 -0 $121 0.009842519685039205143 $114 $130 forward @7 unknown #
vertex $-1 -1 $-1 $120 $131 #
straight-curve $-1 -1 $-1 65.81353187562184814 93.43846451519593188 -20.27947785235593869 -1.179781877392639178 30.45667939691861648 0.1708649615598044624 F 0 F 0.004921259842519169758 #
ellipse-curve $-1 -1 $-1 67.54222405268841101 93.64180906704490326 -17.83146348351354504 0.03870675452076352552 -0.9992348883499304613 -0.005605805809306244579 -1.669076694648925718 -0.05275134260583598522 -2.121650367787006441 1 F 6.300536224521870134e-15 F 0.05000000000043275383 #
point $-1 -1 $-1 65.98117568147156931 93.59369568030253106 -20.03391963168341761 #
point $-1 -1 $-1 65.87314735804223176 93.58905772443921478 -19.9531138512970827 #
coedge $-1 -1 $-1 $115 $114 $117 $128 forward $97 $-1 #
straight-curve $-1 -1 $-1 65.6876943919686056 93.58319646415586135 -20.18885278105284442 18.84202135307912584 0.5955040447892588906 23.95107526318495061 F 5.781360487200705207e-13 F 0.009842519685039581578 #
edge $-1 -1 $-1 $121 5.013900405903198808e-15 $118 0.04999999999937949913 $126 $132 forward @7 unknown #
point $-1 -1 $-1 65.68769439197954796 93.58319646415549187 -20.18885278103901371 #
straight-curve $-1 -1 $-1 65.98117568147156931 93.59369568030253106 -20.03391963168341761 -17.62250161302892337 -0.543146676373168491 -24.86328273954865153 F -0 F 0.009842519685039205143 #
point $-1 -1 $-1 65.80772586244569311 93.5883497484484792 -20.27863698148211924 #
ellipse-curve $-1 -1 $-1 67.54222405274180119 93.64180906661249537 -17.83146348346713594 -0.03870675443530384452 0.999234888352572459 0.005605805928422406825 -1.734498190285902686 -0.05345931816389520169 -2.447173498000616565 1 F 5.013900405903198808e-15 F 0.04999999999937949913 #
End-of-ACIS-data 